<svg xmlns="http://www.w3.org/2000/svg" width="1200" height="630" viewBox="0 0 1200 630">
  <defs>
    <style>
      @import url('https://fonts.googleapis.com/css2?family=Inter:wght@400;500;600&amp;family=Source+Serif+4:opsz,wght@8..60,400;8..60,600&amp;display=swap');
    </style>
  </defs>

  <!-- Background -->
  <rect width="1200" height="630" fill="#fafaf8" />

  <!-- Subtle border -->
  <rect x="1" y="1" width="1198" height="628" fill="none" stroke="#e2e0dc" stroke-width="2" />

  <!-- Logo mark -->
  <g transform="translate(80, 200)">
    <rect width="100" height="100" rx="8" fill="#1a2744" />
    <g fill="none" stroke="#fff" stroke-width="2.5" stroke-linecap="round" stroke-linejoin="round">
      <path d="M50 18.75L18.75 34.375l31.25 15.625 31.25-15.625-31.25-15.625z"/>
      <path d="M18.75 65.625l31.25 15.625 31.25-15.625"/>
      <path d="M18.75 50l31.25 15.625 31.25-15.625"/>
    </g>
  </g>

  <!-- Title -->
  <text x="220" y="240" fill="#1a2744" font-size="56" font-family="'Source Serif 4', Georgia, serif" font-weight="600">
    Clad Sovereign
  </text>

  <!-- Tagline -->
  <text x="220" y="295" fill="#4a5568" font-size="26" font-family="Inter, system-ui, sans-serif" font-weight="400">
    Sovereign Bond Issuance Infrastructure
  </text>

  <!-- Key points -->
  <g fill="#718096" font-size="18" font-family="Inter, system-ui, sans-serif">
    <text x="80" y="450">Mobile-native signing</text>
    <text x="80" y="485">Open-source (Apache 2.0)</text>
    <text x="80" y="520">Built on Substrate</text>
  </g>

  <!-- Divider line -->
  <line x1="80" y1="410" x2="500" y2="410" stroke="#e2e0dc" stroke-width="1" />

  <!-- Website URL -->
  <text x="80" y="580" fill="#718096" font-size="16" font-family="Inter, system-ui, sans-serif">
    clad.so
  </text>

  <!-- Large logo mark on right -->
  <g transform="translate(800, 165)">
    <rect width="300" height="300" rx="24" fill="#1a2744" />
    <g fill="none" stroke="#fff" stroke-width="7" stroke-linecap="round" stroke-linejoin="round">
      <path d="M150 56.25L56.25 103.125l93.75 46.875 93.75-46.875-93.75-46.875z"/>
      <path d="M56.25 196.875l93.75 46.875 93.75-46.875"/>
      <path d="M56.25 150l93.75 46.875 93.75-46.875"/>
    </g>
  </g>
</svg>
